<svg width="756" height="745" viewBox="0 0 756 745" fill="none" xmlns="http://www.w3.org/2000/svg">
<g id="Frame 14">
<path id="Ellipse 52" d="M743 399.177C743 496.619 708.084 579.606 647.579 638.244C587.055 696.899 500.081 732 394.566 732C216.248 732 63.8768 585.858 23.4271 420.785C16.5996 392.922 13 364.624 13 336.519C13 240.132 55.3508 163.725 123.861 111.077C192.664 58.2043 288.345 29 394.566 29C602.987 29 743 203.661 743 399.177Z" fill="url(#paint0_radial_1339_2)" stroke="black" stroke-width="26"/>
<path id="Ellipse 51" d="M678.5 396C678.5 476.321 649.725 544.601 599.97 592.814C550.197 641.044 478.581 670 391.5 670C244.7 670 118.972 549.611 85.5912 413.406C79.9637 390.444 77 367.136 77 344C77 264.734 111.801 201.957 168.154 158.659C224.799 115.135 303.713 91 391.5 91C563.054 91 678.5 234.728 678.5 396Z" fill="#EFD4BA" stroke="black" stroke-width="26"/>
<path id="Ellipse 55" d="M316 328C316 373.56 274.185 416.144 233.5 410.494C192.815 404.844 151 373.56 151 328C151 282.44 173.603 239.856 233.5 245.506C293.397 251.156 316 282.44 316 328Z" fill="white"/>
<path id="Ellipse 56" d="M604 328C604 373.56 562.185 416.144 521.5 410.494C480.815 404.844 439 373.56 439 328C439 282.44 461.603 239.856 521.5 245.506C581.397 251.156 604 282.44 604 328Z" fill="white"/>
<path id="pointer_m" d="M366.003 267.623L365.998 267.731L366.001 267.838L369.704 406.187C369.806 409.979 372.909 413 376.702 413L392.46 413C396.521 413 399.77 409.576 399.466 405.48C398.875 397.486 397.662 379.418 397.256 360.725C396.846 341.887 397.273 322.884 399.801 312.758C401.386 306.409 402.151 295.479 402.456 282.852C402.762 270.124 402.604 255.365 402.247 241.175C401.533 212.791 400.023 186.567 399.824 183.188C399.796 182.711 399.721 182.284 399.611 181.864L396.709 182.621L399.611 181.864L391.581 151.08C389.76 144.102 379.854 144.102 378.034 151.08L370.011 181.834C369.887 182.309 369.813 182.796 369.791 183.287L366.003 267.623Z" fill="#1E1E1E" stroke="black" stroke-width="6"/>
<path id="pointer_h" d="M367.02 377.186C367.021 381.052 370.155 384.185 374.02 384.185L390.438 384.185C393.973 384.185 397.007 381.561 397.378 377.962C398.127 370.703 399.822 353.346 400.794 336.178C401.28 327.598 401.587 319.023 401.5 311.761C401.416 304.642 400.956 298.36 399.716 294.641C398.683 291.54 397.925 286.243 397.42 279.679C396.922 273.201 396.688 265.758 396.604 258.528C396.437 244.072 396.874 230.609 396.977 227.693C397.001 227.009 396.926 226.331 396.753 225.67L388.773 195.079C386.953 188.102 377.047 188.102 375.227 195.079L367.227 225.746C367.076 226.323 367 226.917 367 227.514L367.02 377.186Z" fill="#1E1E1E" stroke="black" stroke-width="6"/>
<path id="pointer_s" d="M378.015 226.657L378 226.807L378 226.958L378.008 377C378.008 380.866 381.142 384 385.008 384L386.433 384C390.145 384 393.268 381.119 393.418 377.327C393.714 369.89 394.361 352.628 394.73 335.624C395.095 318.752 395.198 301.761 394.341 295.1C393.45 288.181 393.155 272.231 393.101 257.327C393.047 242.519 393.229 229.034 393.255 227.21C393.259 226.927 393.245 226.678 393.22 226.427L392.594 220.211C391.748 211.813 379.51 211.813 378.664 220.211L378.015 226.657Z" fill="#1E1E1E" stroke="black" stroke-width="6"/>
<g id="Frame 5">
<path id="Vector 101" d="M215 335.5C226 331.833 242.7 325.5 251.5 325.5M219 319.5C221.667 327.5 230.3 339.8 229.5 345M228.5 312C232.167 321.167 240.2 337.8 243 339M243 310L226.5 336.5" stroke="black" stroke-width="13" stroke-linecap="round"/>
</g>
<g id="Frame 6">
<path id="Vector 101_2" d="M472 335.5C483 331.833 499.7 325.5 508.5 325.5M476 319.5C478.667 327.5 487.3 339.8 486.5 345M485.5 312C489.167 321.167 497.2 337.8 500 339M500 310L483.5 336.5" stroke="black" stroke-width="13" stroke-linecap="round"/>
</g>
<path id="Rectangle 10" d="M81.5813 358.371C77.5002 358.031 74 361.252 74 365.347V395.489C74 399.687 77.67 402.941 81.8381 402.438L115.821 398.34C115.943 398.325 116.066 398.333 116.185 398.363L129.293 401.659C133.713 402.77 138 399.428 138 394.87V365.332C138 361.246 134.516 358.029 130.444 358.354L105.449 360.347C105.395 360.352 105.341 360.351 105.287 360.347L81.5813 358.371Z" fill="white" stroke="white" stroke-width="6"/>
<path id="Rectangle 7" d="M646.84 358.563C642.671 358.059 639 361.313 639 365.512V395.24C639 399.588 642.923 402.884 647.206 402.135L668.496 398.412C668.668 398.382 668.846 398.398 669.011 398.458L675.602 400.861C680.169 402.525 685 399.144 685 394.284V365.489C685 361.305 681.353 358.055 677.196 358.536L661.686 360.329C661.608 360.338 661.529 360.338 661.451 360.329L646.84 358.563Z" fill="white" stroke="white" stroke-width="6"/>
<path id="Rectangle 12" d="M419.649 125.553C419.971 121.482 416.754 118 412.671 118L382.485 118C378.303 118 375.054 121.643 375.53 125.797L379.667 161.867C379.68 161.983 379.673 162.1 379.646 162.213L376.261 176.372C375.209 180.773 378.545 185 383.069 185L412.685 185C416.76 185 419.973 181.534 419.665 177.471L417.651 150.912C417.647 150.861 417.647 150.809 417.651 150.757L419.649 125.553Z" fill="white" stroke="white" stroke-width="6"/>
<path id="Rectangle 11" d="M387.448 666.313C387.042 670.43 390.276 674 394.414 674L424.388 674C428.648 674 431.92 670.228 431.318 666.011L427.366 638.328C427.346 638.185 427.357 638.039 427.398 637.901L430.345 627.997C431.681 623.509 428.319 619 423.636 619L394.395 619C390.27 619 387.039 622.55 387.426 626.658L389.341 646.936C389.347 647 389.347 647.064 389.34 647.128L387.448 666.313Z" fill="white" stroke="white" stroke-width="6"/>
<path id="Ellipse 53" d="M678.5 396C678.5 476.321 649.725 544.601 599.97 592.814C550.197 641.044 478.581 670 391.5 670C244.7 670 118.972 549.611 85.5912 413.406C79.9637 390.444 77 367.136 77 344C77 264.734 111.801 201.957 168.154 158.659C224.799 115.135 303.713 91 391.5 91C563.054 91 678.5 234.728 678.5 396Z" stroke="black" stroke-width="26"/>
<path id="Vector 98" d="M298.434 201.619L246.408 128.649C243.336 124.341 237.813 122.547 232.783 124.191C214.367 130.207 170.888 143.951 153.638 145.429C131.481 147.326 104.848 106.646 184.675 53.8915C262.323 2.57723 364.299 11.9829 453.854 18.7408C471.63 20.0822 492.461 31.2171 512.081 34.8065C577.149 46.7104 640.33 95.1817 637.868 115.671C635.406 136.161 613.17 145.192 566.904 137.609C528.805 131.365 501.059 139.892 492.452 143.096C490.577 143.795 489.013 145.064 487.812 146.665L456.781 188.029C452.688 193.484 444.878 194.436 439.594 190.124L396.968 155.337C392.724 151.872 386.671 151.723 382.261 154.974L315.324 204.312C309.93 208.289 302.324 207.076 298.434 201.619Z" fill="#C18951" stroke="black" stroke-width="26"/>
<g id="Frame 18">
<path id="Vector 103" d="M338.635 418.971C309.77 376.942 347.137 346.288 358 330.5C358 330.5 387.5 314 414 340C440.5 366 438 389 438 389C426.21 423.666 367.5 461 338.635 418.971Z" fill="#EED4BA"/>
</g>
<path id="Vector 104" d="M363.48 324.821C348.018 347.829 315.058 388.203 342.774 422.096C370.49 455.989 423.598 437.713 440.109 387.025" stroke="black" stroke-width="13" stroke-linecap="round" stroke-linejoin="round"/>
<g id="Group 4">
<line id="Line 1" x1="555.793" y1="159.483" x2="543.483" y2="171.207" stroke="black" stroke-width="12" stroke-linecap="round"/>
<line id="Line 2" x1="638.841" y1="275.206" x2="625.206" y2="283.159" stroke="black" stroke-width="12" stroke-linecap="round"/>
<line id="Line 3" x1="547.82" y1="598.293" x2="554.293" y2="614.18" stroke="black" stroke-width="12" stroke-linecap="round"/>
<line id="Line 5" x1="270.262" y1="615.178" x2="259.178" y2="634.738" stroke="black" stroke-width="12" stroke-linecap="round"/>
<line id="Line 6" x1="172.035" y1="512.255" x2="143.255" y2="529.965" stroke="black" stroke-width="12" stroke-linecap="round"/>
<line id="Line 7" x1="128.034" y1="259.846" x2="100.846" y2="254.966" stroke="black" stroke-width="12" stroke-linecap="round"/>
<line id="Line 8" x1="224.705" y1="159.789" x2="203.789" y2="146.295" stroke="black" stroke-width="12" stroke-linecap="round"/>
<line id="Line 4" x1="637.393" y1="492.75" x2="654.75" y2="505.607" stroke="black" stroke-width="12" stroke-linecap="round"/>
</g>
<path id="Ellipse 54" d="M477.109 541.869C476.986 544.671 475.291 546.568 471.325 548.402C469.347 549.316 467.01 550.112 464.372 550.955C463.823 551.13 463.259 551.308 462.686 551.489C460.564 552.159 458.304 552.872 456.081 553.68C451.772 555.247 447.053 554.045 443.225 551.311C439.283 548.497 437.106 544.668 437.106 542C437.106 536.246 444.016 528.21 456.579 530.453C463.607 531.708 469.005 533.022 472.578 534.952C474.317 535.891 475.451 536.889 476.142 537.938C476.805 538.946 477.183 540.185 477.109 541.869Z" fill="black" stroke="black" stroke-width="6"/>
<g id="mouth-full">
<path id="Vector 132" d="M427.695 609.995C403.164 594.899 401.277 583.577 365.424 581.69C329.571 579.803 299.379 594.899 272.961 591.125C246.543 587.351 207.671 525.458 263.526 481.679C333.345 426.956 405.051 451.487 444.678 459.035C484.305 466.583 539.029 513.758 520.158 581.69C505.062 636.036 452.226 625.091 427.695 609.995Z" fill="#9D3F40" stroke="black" stroke-width="16"/>
<path id="Vector 134" d="M381.369 524.81C340.033 524.81 325.23 565.938 322.332 580.685C355.759 575.33 382.032 587.007 395.5 580.685C404.564 566.735 424 524.81 381.369 524.81Z" fill="#E56268" stroke="black" stroke-width="6"/>
<g id="Vector 133">
<path d="M412.599 564.708C424.676 563.199 431.469 595.529 433.356 611.883L405.051 594.9L372.972 581.691L340.893 581.691L318.249 587.352L291.831 591.126C291.831 574.143 299.379 568.482 306.927 564.708C312.966 561.689 316.991 568.532 318.249 572.331C319.215 567.063 321.418 561.967 325.797 559.047C334.855 553.009 340.662 564.079 342.433 570.369C344.822 558.775 349.374 555.273 359.763 555.273C370.331 555.273 372.972 572.885 372.972 581.691C373.601 574.143 377.124 559.047 386.181 559.047C395.239 559.047 401.335 571.627 403.251 577.917C403.765 571.269 406.211 565.507 412.599 564.708Z" fill="white"/>
<path d="M405.051 594.9L433.356 611.883C431.469 595.529 424.676 563.199 412.599 564.708C406.211 565.507 403.765 571.269 403.251 577.917M405.051 594.9C403.866 590.457 402.793 583.836 403.251 577.917M405.051 594.9L372.972 581.691M403.251 577.917C401.335 571.627 395.239 559.047 386.181 559.047C377.124 559.047 373.601 574.143 372.972 581.691M372.972 581.691C372.972 572.885 370.331 555.273 359.763 555.273C349.374 555.273 344.822 558.775 342.433 570.369M372.972 581.691L340.893 581.691M340.893 581.691C341.296 577.26 341.785 573.516 342.433 570.369M340.893 581.691L318.249 587.352M342.433 570.369C340.662 564.079 334.855 553.009 325.797 559.047C321.418 561.967 319.215 567.063 318.249 572.331M318.249 587.352C317.6 583.779 317.218 577.957 318.249 572.331M318.249 587.352L291.831 591.126C291.831 574.143 299.379 568.482 306.927 564.708C312.966 561.689 316.991 568.532 318.249 572.331" stroke="black" stroke-width="6"/>
</g>
<g id="Vector 136">
<path d="M361.759 473.05C351.552 470.315 353.558 452.619 355.837 444.114L386.823 452.416L410.161 452.809L436.656 456.001C432.26 472.405 423.504 475.92 415.237 477.612C408.622 478.965 406.505 471.313 406.273 467.318C403.978 472.157 400.53 476.509 395.544 478.196C385.233 481.684 382.489 469.488 382.405 462.954C377.098 473.535 371.794 475.739 361.759 473.05Z" fill="white"/>
<path d="M386.823 452.416C385.287 456.592 383.846 460.082 382.405 462.954M386.823 452.416L410.161 452.809M386.823 452.416L355.837 444.114C353.558 452.619 351.552 470.315 361.759 473.05C371.794 475.739 377.098 473.535 382.405 462.954M382.405 462.954C382.489 469.488 385.233 481.684 395.544 478.196C400.53 476.509 403.978 472.157 406.273 467.318M410.161 452.809C409.864 456.429 408.725 462.151 406.273 467.318M410.161 452.809L436.656 456.001C432.26 472.405 423.504 475.92 415.237 477.612C408.622 478.965 406.505 471.313 406.273 467.318" stroke="black" stroke-width="6"/>
</g>
<path id="Vector 135" d="M427.695 609.995C403.164 594.899 401.277 583.577 365.424 581.69C329.571 579.803 299.379 594.899 272.961 591.125C246.543 587.351 207.671 525.458 263.526 481.679C333.345 426.956 405.051 451.487 444.678 459.035C484.305 466.583 539.029 513.758 520.158 581.69C505.062 636.036 452.226 625.091 427.695 609.995Z" stroke="black" stroke-width="16"/>
</g>
</g>
<defs>
<radialGradient id="paint0_radial_1339_2" cx="0" cy="0" r="1" gradientUnits="userSpaceOnUse" gradientTransform="translate(378 380.5) rotate(90) scale(364.5 378)">
<stop offset="0.725" stop-color="#FFB30E"/>
<stop offset="1" stop-color="#FFFE91"/>
</radialGradient>
</defs>
</svg>
